<?xml version="1.0" encoding="utf-8"?>
<!-- Generator: Adobe Illustrator 23.0.2, SVG Export Plug-In . SVG Version: 6.00 Build 0)  -->
<svg version="1.1" id="Layer_1" xmlns="http://www.w3.org/2000/svg" xmlns:xlink="http://www.w3.org/1999/xlink" x="0px" y="0px"
	 viewBox="0 0 64 64" style="enable-background:new 0 0 64 64;" xml:space="preserve">
<path fill="var(--theme-frame-color)" d="M59.8,14.4c1.2,0,2.2-0.4,3-1.2c0.8-0.7,1.2-1.7,1.2-2.8c0-2.2-1.9-4-4.2-4H48.8c0.9,0,1.8-0.4,2.4-0.9
	c0.6-0.6,1-1.4,1-2.3c0-1.8-1.5-3.2-3.4-3.2H15.2c-0.9,0-1.8,0.4-2.4,0.9c-0.6,0.6-1,1.4-1,2.3c0,1.8,1.5,3.2,3.4,3.2H4.2
	C3,6.4,2,6.8,1.2,7.6C0.5,8.3,0,9.3,0,10.4c0,2.2,1.9,4,4.2,4h3C2.7,19.6,0,26.3,0,33.6C0,50.4,14.3,64,32,64s32-13.6,32-30.4
	c0-7.3-2.7-14-7.2-19.2H59.8z M57.3,33.6c0,13.2-11.3,24-25.3,24S6.7,46.8,6.7,33.6c0-7.8,4-14.8,10.1-19.2h30.3
	C53.3,18.8,57.3,25.8,57.3,33.6z"/>
<path fill="var(--theme-bulb-fill)" d="M47.1,14.4H16.9C10.7,18.8,6.7,25.8,6.7,33.6c0,13.2,11.3,24,25.3,24s25.3-10.8,25.3-24
	C57.3,25.8,53.3,18.8,47.1,14.4z M26.2,47.5c-0.8,0.3-1.7,0.5-2.6,0.5c-0.9,0-1.8-0.2-2.6-0.5s-1.6-0.8-2.2-1.4
	c-0.6-0.6-1.1-1.3-1.5-2.1c-0.3-0.8-0.5-1.6-0.5-2.4c0-0.8,0.2-1.7,0.5-2.4c0.3-0.8,0.8-1.5,1.5-2.1l3,2.9c-0.2,0.2-0.4,0.5-0.5,0.8
	c-0.1,0.3-0.2,0.6-0.2,0.9c0,0.3,0.1,0.6,0.2,0.9c0.1,0.3,0.3,0.5,0.5,0.8c0.2,0.2,0.5,0.4,0.8,0.5c0.3,0.1,0.6,0.2,0.9,0.2
	c0.3,0,0.6-0.1,0.9-0.2c0.3-0.1,0.6-0.3,0.8-0.5l3,2.9C27.7,46.7,27,47.2,26.2,47.5z"/>
</svg>
