<?xml version="1.0" encoding="utf-8"?>
<!-- Generator: Adobe Illustrator 23.0.2, SVG Export Plug-In . SVG Version: 6.00 Build 0)  -->
<svg version="1.1" id="Layer_1" xmlns="http://www.w3.org/2000/svg" xmlns:xlink="http://www.w3.org/1999/xlink" x="0px" y="0px"
	 viewBox="0 0 64 64" style="enable-background:new 0 0 64 64;" xml:space="preserve">
<g>
	<path fill="var(--theme-frame-color)" d="M53.3,32h-8c-5.9,0-10.7-4.8-10.7-10.7V2.7V0h-5.3v2.7v18.7c0,5.9-4.8,10.7-10.7,10.7h-8C9.2,32,8,33.2,8,34.7
		s1.2,2.7,2.7,2.7h42.7c1.5,0,2.7-1.2,2.7-2.7C56,33.2,54.8,32,53.3,32z"/>
	<path fill="var(--theme-frame-color)" d="M45.3,45.3H18.7c-1.5,0-2.7,1.2-2.7,2.7s1.2,2.7,2.7,2.7h26.7c1.5,0,2.7-1.2,2.7-2.7
		C48,46.5,46.8,45.3,45.3,45.3z"/>
	<path fill="var(--theme-frame-color)" d="M40,58.7H24c-1.5,0-2.7,1.2-2.7,2.7s1.2,2.7,2.7,2.7h16c1.5,0,2.7-1.2,2.7-2.7S41.5,58.7,40,58.7z"/>
</g>
</svg>
