<?xml version="1.0" encoding="utf-8"?>
<!-- Generator: Adobe Illustrator 23.0.2, SVG Export Plug-In . SVG Version: 6.00 Build 0)  -->
<svg version="1.1" id="Layer_1" xmlns="http://www.w3.org/2000/svg" xmlns:xlink="http://www.w3.org/1999/xlink" x="0px" y="0px"
	 viewBox="0 0 64 64" style="enable-background:new 0 0 64 64;" xml:space="preserve">
<g>
	<path fill="var(--theme-frame-color)" d="M59.8,11.1H4.2C1.9,11.1,0,13,0,15.3v33.3c0,2.3,1.9,4.2,4.2,4.2h55.6c2.3,0,4.2-1.9,4.2-4.2V15.3
		C64,13,62.1,11.1,59.8,11.1z M59.8,48.9H4.2c-0.1,0-0.2-0.1-0.2-0.2V15.3c0-0.1,0.1-0.2,0.2-0.2h55.6c0.1,0,0.2,0.1,0.2,0.2V30
		h-8.5c-0.9-3.8-4.3-6.7-8.4-6.7c-4.8,0-8.7,3.9-8.7,8.7c0,4.8,3.9,8.7,8.7,8.7c4.1,0,7.5-2.9,8.4-6.7H60v14.7
		C60,48.8,59.9,48.9,59.8,48.9z"/>
	<rect x="13.3" y="25.3" fill="var(--theme-frame-color)" width="4" height="13.3"/>
	<rect x="22.2" y="25.3" fill="var(--theme-frame-color)" width="4" height="13.3"/>
</g>
</svg>
