<?xml version="1.0" standalone="no"?>
<!DOCTYPE svg PUBLIC "-//W3C//DTD SVG 20010904//EN"
 "http://www.w3.org/TR/2001/REC-SVG-20010904/DTD/svg10.dtd">
<svg version="1.0" xmlns="http://www.w3.org/2000/svg"
 width="180.000000pt" height="180.000000pt" viewBox="0 0 180.000000 180.000000"
 preserveAspectRatio="xMidYMid meet">
<metadata>
Created by potrace 1.11, written by Peter Selinger 2001-2013
</metadata>
<g transform="translate(0.000000,180.000000) scale(0.100000,-0.100000)"
fill="#000000" stroke="none">
<path d="M755 1586 c-344 -79 -573 -382 -552 -731 17 -296 217 -542 512 -632
84 -25 286 -25 370 0 182 56 334 174 425 332 16 28 41 86 56 130 26 72 28 93
28 215 0 122 -2 143 -28 215 -77 222 -231 376 -451 451 -98 33 -264 42 -360
20z m85 -686 c0 -324 -3 -590 -7 -590 -5 0 -37 7 -72 15 -205 49 -387 231
-436 436 -19 82 -19 196 0 278 48 202 231 387 431 435 33 8 65 15 72 15 9 1
12 -123 12 -589z m199 575 c205 -49 387 -231 436 -436 8 -35 15 -67 15 -71 0
-5 -119 -8 -265 -8 l-265 0 0 265 c0 146 3 265 8 265 4 0 36 -7 71 -15z m451
-642 c0 -5 -7 -37 -15 -72 -49 -205 -231 -387 -436 -436 -35 -8 -67 -15 -71
-15 -5 0 -8 119 -8 265 l0 265 265 0 c146 0 265 -3 265 -7z"/>
</g>
</svg>
