<?xml version="1.0" encoding="utf-8"?>
<!-- Generator: Adobe Illustrator 18.1.1, SVG Export Plug-In . SVG Version: 6.00 Build 0)  -->
<svg version="1.1" id="Layer_1" xmlns="http://www.w3.org/2000/svg" xmlns:xlink="http://www.w3.org/1999/xlink" x="0px" y="0px"
	 viewBox="0 0 48 48" enable-background="new 0 0 48 48" xml:space="preserve">
<g>
	<path d="M18.5,48h-2.5c0-2.7,3.7-3.6,7.6-4.6c1.6-0.4,5.8-1.5,5.8-2.2c0-0.8-4.2-1.8-5.8-2.2c-3.9-1-7.6-2-7.6-4.6
		c0-2.7,3.7-3.6,7.6-4.6c1.6-0.4,5.8-1.5,5.8-2.2c0-0.8-4.2-1.8-5.8-2.2c-3.9-1-7.6-1.9-7.6-4.6c0-2.7,3.7-3.6,7.6-4.6
		c1.6-0.4,5.8-1.5,5.8-2.2c0-0.8-4.2-1.8-5.8-2.2c-3.9-1-7.6-1.9-7.6-4.6c0-2.7,3.7-3.6,7.6-4.6c1.6-0.4,5.8-1.5,5.8-2.2h2.5
		c0,2.7-3.7,3.6-7.6,4.6c-1.6,0.4-5.8,1.5-5.8,2.2c0,0.8,4.2,1.8,5.8,2.2c3.9,1,7.6,1.9,7.6,4.6c0,2.7-3.7,3.6-7.6,4.6
		c-1.6,0.4-5.8,1.5-5.8,2.2c0,0.8,4.2,1.8,5.8,2.2c3.9,1,7.6,2,7.6,4.6S28.2,31,24.3,32c-1.6,0.4-5.8,1.5-5.8,2.2
		c0,0.8,4.2,1.8,5.8,2.2c3.9,1,7.6,2,7.6,4.6c0,2.7-3.7,3.6-7.6,4.6C22.7,46.2,18.5,47.2,18.5,48z"/>
	<path d="M19,48.5h-3.5V48c0-3.1,3.9-4.1,8-5.1c3.7-1,4.9-1.5,5.3-1.8c-0.4-0.3-1.6-0.8-5.3-1.8c-4.1-1.1-8-2.1-8-5.1
		c0-3.1,3.9-4,8-5.1c3.7-1,4.9-1.5,5.3-1.8c-0.4-0.3-1.6-0.8-5.3-1.8c-4.1-1.1-8-2-8-5.1c0-3.1,3.9-4,8-5.1c3.7-1,4.9-1.5,5.3-1.8
		c-0.4-0.3-1.6-0.8-5.3-1.8c-4.1-1.1-8-2-8-5.1c0-3.1,3.9-4,8-5.1c4.1-1.1,5.2-1.6,5.4-1.8v-0.4h3.5V0c0,3.1-3.9,4-8,5.1
		c-3.7,0.9-4.9,1.5-5.3,1.8c0.4,0.3,1.6,0.8,5.3,1.7c4.1,1.1,8,2,8,5.1c0,3.1-3.9,4-8,5.1c-3.7,1-4.9,1.5-5.3,1.8
		c0.4,0.3,1.6,0.8,5.3,1.8c4.1,1.1,8,2,8,5.1c0,3.1-3.9,4-8,5.1c-3.7,1-4.9,1.5-5.3,1.8c0.4,0.3,1.6,0.8,5.3,1.8
		c4.1,1.1,8,2.1,8,5.1c0,3.1-3.9,4.1-8,5.1c-4.1,1.1-5.2,1.6-5.4,1.8V48.5z M16.7,47.5h1.6c0.5-0.6,2-1.2,5.9-2.2
		c3.7-1,7.2-1.9,7.2-4.1c0-2.3-3.5-3.2-7.2-4.1C19,35.7,18,35,18,34.3c0-0.7,1-1.4,6.1-2.7c3.7-1,7.2-1.9,7.2-4.1
		c0-2.3-3.5-3.2-7.2-4.1C19,22,18,21.3,18,20.6c0-0.7,1-1.4,6.1-2.7c3.7-1,7.2-1.9,7.2-4.1c0-2.3-3.5-3.2-7.2-4.1
		C19,8.2,18,7.6,18,6.9c0-0.7,1-1.4,6.1-2.7c3.4-0.9,6.7-1.7,7.2-3.6h-1.6c-0.5,0.6-2,1.2-5.9,2.2c-3.7,1-7.2,1.9-7.2,4.1
		c0,2.3,3.5,3.2,7.2,4.1c5.2,1.3,6.1,2,6.1,2.7c0,0.7-1,1.4-6.1,2.7c-3.7,1-7.2,1.9-7.2,4.1c0,2.3,3.5,3.2,7.2,4.1
		c5.2,1.3,6.1,2,6.1,2.7c0,0.8-0.9,1.4-6.1,2.7c-3.7,1-7.2,1.9-7.2,4.1c0,2.3,3.5,3.2,7.2,4.1c5.2,1.3,6.1,2,6.1,2.7s-1,1.4-6.1,2.7
		C20.4,44.7,17.1,45.6,16.7,47.5z"/>
</g>
</svg>
