<?xml version="1.0" encoding="utf-8"?><svg xmlns="http://www.w3.org/2000/svg" xmlns:xlink="http://www.w3.org/1999/xlink"><symbol viewBox="0 0 48 48" id="icon-amplifier" xmlns="http://www.w3.org/2000/svg"><path d="M17 10.7l22.8 13.1L17 36.9V11m-4-7.3v40.1l34.8-20.1L13 3.7zM0 16h13v4H0zM0 29h13v4H0z"/></symbol><symbol viewBox="0 0 48 48" id="icon-ground" xmlns="http://www.w3.org/2000/svg"><path d="M42 24H26V0h-4v24H6v4h36zM12 34h24v4H12zM16 44h16v4H16z"/></symbol><symbol viewBox="0 0 48 48" id="icon-helix" xmlns="http://www.w3.org/2000/svg"><path d="M18.5 48H16c0-2.7 3.7-3.6 7.6-4.6 1.6-.4 5.8-1.5 5.8-2.2 0-.8-4.2-1.8-5.8-2.2-3.9-1-7.6-2-7.6-4.6 0-2.7 3.7-3.6 7.6-4.6 1.6-.4 5.8-1.5 5.8-2.2 0-.8-4.2-1.8-5.8-2.2-3.9-1-7.6-1.9-7.6-4.6 0-2.7 3.7-3.6 7.6-4.6 1.6-.4 5.8-1.5 5.8-2.2 0-.8-4.2-1.8-5.8-2.2-3.9-1-7.6-1.9-7.6-4.6 0-2.7 3.7-3.6 7.6-4.6 1.6-.4 5.8-1.5 5.8-2.2h2.5c0 2.7-3.7 3.6-7.6 4.6-1.6.4-5.8 1.5-5.8 2.2 0 .8 4.2 1.8 5.8 2.2 3.9 1 7.6 1.9 7.6 4.6 0 2.7-3.7 3.6-7.6 4.6-1.6.4-5.8 1.5-5.8 2.2 0 .8 4.2 1.8 5.8 2.2 3.9 1 7.6 2 7.6 4.6S28.2 31 24.3 32c-1.6.4-5.8 1.5-5.8 2.2 0 .8 4.2 1.8 5.8 2.2 3.9 1 7.6 2 7.6 4.6 0 2.7-3.7 3.6-7.6 4.6-1.6.6-5.8 1.6-5.8 2.4z"/><path d="M19 48.5h-3.5V48c0-3.1 3.9-4.1 8-5.1 3.7-1 4.9-1.5 5.3-1.8-.4-.3-1.6-.8-5.3-1.8-4.1-1.1-8-2.1-8-5.1 0-3.1 3.9-4 8-5.1 3.7-1 4.9-1.5 5.3-1.8-.4-.3-1.6-.8-5.3-1.8-4.1-1.1-8-2-8-5.1 0-3.1 3.9-4 8-5.1 3.7-1 4.9-1.5 5.3-1.8-.4-.3-1.6-.8-5.3-1.8-4.1-1.1-8-2-8-5.1 0-3.1 3.9-4 8-5.1C27.6.4 28.7-.1 28.9-.3v-.4h3.5V0c0 3.1-3.9 4-8 5.1-3.7.9-4.9 1.5-5.3 1.8.4.3 1.6.8 5.3 1.7 4.1 1.1 8 2 8 5.1 0 3.1-3.9 4-8 5.1-3.7 1-4.9 1.5-5.3 1.8.4.3 1.6.8 5.3 1.8 4.1 1.1 8 2 8 5.1 0 3.1-3.9 4-8 5.1-3.7 1-4.9 1.5-5.3 1.8.4.3 1.6.8 5.3 1.8 4.1 1.1 8 2.1 8 5.1 0 3.1-3.9 4.1-8 5.1-4.1 1.1-5.2 1.6-5.4 1.8v.3zm-2.3-1h1.6c.5-.6 2-1.2 5.9-2.2 3.7-1 7.2-1.9 7.2-4.1 0-2.3-3.5-3.2-7.2-4.1C19 35.7 18 35 18 34.3c0-.7 1-1.4 6.1-2.7 3.7-1 7.2-1.9 7.2-4.1 0-2.3-3.5-3.2-7.2-4.1C19 22 18 21.3 18 20.6c0-.7 1-1.4 6.1-2.7 3.7-1 7.2-1.9 7.2-4.1 0-2.3-3.5-3.2-7.2-4.1C19 8.2 18 7.6 18 6.9c0-.7 1-1.4 6.1-2.7 3.4-.9 6.7-1.7 7.2-3.6h-1.6c-.5.6-2 1.2-5.9 2.2-3.7 1-7.2 1.9-7.2 4.1 0 2.3 3.5 3.2 7.2 4.1 5.2 1.3 6.1 2 6.1 2.7 0 .7-1 1.4-6.1 2.7-3.7 1-7.2 1.9-7.2 4.1 0 2.3 3.5 3.2 7.2 4.1 5.2 1.3 6.1 2 6.1 2.7 0 .8-.9 1.4-6.1 2.7-3.7 1-7.2 1.9-7.2 4.1 0 2.3 3.5 3.2 7.2 4.1 5.2 1.3 6.1 2 6.1 2.7s-1 1.4-6.1 2.7c-3.4 1.1-6.7 2-7.1 3.9z"/></symbol></svg>